<svg width="14" height="14" viewBox="0 0 14 14" fill="none" xmlns="http://www.w3.org/2000/svg">
<path d="M13.6395 7.0657C13.639 7.31286 13.5874 7.63284 13.5248 7.87076C13.5053 7.94518 13.4862 7.90221 13.4713 7.95295C13.442 8.05153 13.4345 8.14883 13.3993 8.24491C13.3874 8.27665 13.3562 8.22632 13.3448 8.25964C13.2818 8.44162 13.2426 8.61902 13.1731 8.80116C12.8308 9.69472 12.3377 10.5069 11.6809 11.2037C11.4645 11.4345 11.1617 11.67 10.9205 11.8865C10.8924 11.912 10.9331 11.9264 10.9294 11.9333C10.8697 12.0408 10.8527 11.959 10.7885 11.9966C10.5333 12.1454 10.2634 12.3218 10.0271 12.4746C9.92636 12.5394 10.067 12.5437 9.94124 12.5673C9.93258 12.5689 9.94009 12.52 9.9094 12.5323C9.83999 12.5604 9.71891 12.6318 9.66581 12.6546C9.56373 12.6984 9.54748 12.7066 9.45231 12.7502C9.32157 12.8093 9.15764 12.857 9.01719 12.9192C8.98715 12.9326 9.04209 12.9549 8.9951 12.9796C8.94821 13.0046 8.81559 13.0472 8.76789 13.0526C8.72031 13.0582 8.72961 13.022 8.7195 13.0177C8.63657 12.981 8.50924 13.1068 8.48909 13.1142C8.13533 13.2504 7.80512 13.2652 7.45707 13.3075C7.19358 13.3394 6.91156 13.3709 6.65686 13.3687C6.65475 13.3687 6.65264 13.3687 6.65054 13.3686C6.34543 13.3649 6.09145 13.3264 5.79858 13.2934C5.76771 13.2898 5.79785 13.3413 5.75994 13.3368C5.35692 13.2889 4.96084 13.1938 4.58761 13.0396C4.55023 13.024 4.61239 13.0007 4.57603 12.9829C4.35094 12.876 4.03295 12.656 3.82543 12.7558C3.67642 12.6794 3.49861 12.5792 3.38681 12.4742C3.31502 12.4065 3.41798 12.4137 3.30716 12.3716C3.28223 12.362 3.29185 12.4135 3.25583 12.3962C3.10384 12.3231 2.95689 12.2128 2.80915 12.1337C2.77903 12.1177 2.76612 12.1519 2.75456 12.1515C2.65776 12.1465 2.59998 11.9965 2.5811 11.9739C2.43302 11.8014 2.29858 11.7115 2.14615 11.5711C2.11098 11.5383 2.12062 11.6119 2.0855 11.5814C1.90382 11.4225 1.73199 11.2388 1.59343 11.0471C1.56276 11.0044 1.6249 11.0143 1.61191 10.9925C1.55509 10.8973 1.4807 10.9274 1.42695 10.8345C1.41566 10.815 1.45061 10.8031 1.45104 10.7976C1.45854 10.7112 1.3585 10.72 1.34691 10.7079C1.20095 10.5581 1.19726 10.3988 1.07934 10.2404C1.06515 10.2213 1.0573 10.2903 1.01959 10.2348C0.768229 9.86467 0.56449 9.43102 0.441739 9.00659C0.422609 8.94054 0.470735 8.97478 0.472992 8.96928C0.507985 8.88182 0.413315 8.86894 0.402769 8.84871C0.322239 8.68963 0.343728 8.51307 0.214454 8.42481C0.0820678 7.83846 -0.0273866 7.24503 0.00609338 6.64746C0.0143672 6.49988 0.0312389 6.35581 0.0586337 6.21095C0.0602959 6.20169 0.100997 6.22111 0.104137 6.2027C0.144294 5.98172 0.0766465 6.02097 0.0137469 5.86199C-0.00193161 5.82142 0.108526 5.72016 0.11707 5.71171C0.147951 5.67923 0.204278 5.72553 0.210985 5.71418C0.264693 5.62169 0.058003 5.60571 0.0816891 5.46844C0.0827825 5.46425 0.116961 5.48876 0.1227 5.47801C0.140642 5.44475 0.132341 5.40701 0.151859 5.37505C0.197151 5.30205 0.300309 5.29535 0.270354 5.16449C0.266652 5.14779 0.146543 5.14443 0.181432 5.02551C0.194605 4.97829 0.250692 4.76642 0.276556 4.71072C0.301592 4.65468 0.325372 4.70578 0.328206 4.70206C0.424563 4.56125 0.425926 4.62667 0.521128 4.57363C0.616393 4.52193 0.443737 4.48565 0.436279 4.44772C0.428713 4.4097 0.50882 4.31164 0.532837 4.28986C0.556674 4.26784 0.565914 4.3103 0.582775 4.28918C0.694595 4.15027 0.529735 4.18707 0.525342 4.12372C0.516381 3.97304 0.678883 3.92829 0.742364 3.82473C0.75974 3.79646 0.721353 3.80797 0.731726 3.78013C0.77381 3.66986 0.841511 3.62623 0.872249 3.49175C0.87704 3.47 0.86202 3.33633 0.947361 3.30469C0.959504 3.30038 0.973202 3.34084 1.00475 3.3017C1.05173 3.24325 1.12834 3.13348 1.16318 3.06101C1.18891 3.00735 1.10698 3.03445 1.16209 2.98145C1.18667 2.95809 1.17849 3.02624 1.22243 2.98118C1.26589 2.93616 1.3555 2.80718 1.3906 2.75874C1.4253 2.71019 1.37343 2.71217 1.37409 2.70667C1.37888 2.67367 1.43412 2.56987 1.44071 2.56194C1.7581 2.15101 2.14213 1.86053 2.51422 1.5289C2.54367 1.5029 2.49656 1.48609 2.50078 1.48178C2.59538 1.38352 2.58271 1.53837 2.67926 1.51099C2.61554 1.45093 2.66846 1.42899 2.7386 1.36496C2.77243 1.33412 2.73262 1.32188 2.73391 1.31664C2.75867 1.23511 2.83614 1.26101 2.85364 1.26509C2.91863 1.27972 2.92528 1.20406 2.96924 1.21422C3.01272 1.22447 2.98269 1.30346 3.0565 1.25299C3.06033 1.21315 2.95928 1.18314 3.00945 1.13393C3.19862 0.943372 3.65998 0.761192 3.85264 0.68263C4.04456 0.600593 4.10549 0.570517 4.22213 0.535314C4.43389 0.474666 4.33767 0.4477 4.45766 0.375181C4.57938 0.304059 4.56316 0.466351 4.59191 0.490067C4.62 0.514176 4.62941 0.476596 4.65736 0.485899C4.68511 0.495299 4.64344 0.531441 4.6979 0.520813C4.7521 0.509823 4.87994 0.413178 4.89063 0.376054C4.9122 0.297115 4.82504 0.243614 4.97724 0.229906C4.98597 0.229227 4.96876 0.273901 5.00163 0.269414C5.26067 0.233117 5.52674 0.183233 5.78621 0.175544C5.82184 0.174579 5.79607 0.221612 5.81677 0.221577C6.0321 0.223321 5.94784 0.160364 6.05829 0.0680361C6.04186 0.178199 6.11187 0.236291 6.27247 0.227071C6.36961 0.222109 6.34992 0.176167 6.41185 0.140406C6.43049 0.129598 6.50052 0.159962 6.51255 0.137632C6.55274 0.0647159 6.48495 -0.0163737 6.65686 0.0148093C6.65693 0.0148227 6.657 0.014836 6.65707 0.0148494C6.65973 0.0153906 6.65847 0.020667 6.65686 0.0273784C6.65475 0.0362072 6.65206 0.0475194 6.65686 0.0537992C6.65876 0.0562883 6.66184 0.0579874 6.6666 0.0584354C6.83343 0.0754478 6.85447 -6.06477e-05 7.03678 -0.000123531C7.18063 -0.000236541 7.42813 0.069632 7.58598 0.100509C7.5662 0.21989 7.71705 0.214183 7.79244 0.142923C7.89483 0.164091 8.00603 0.181419 8.10232 0.214864C8.13532 0.226331 8.10531 0.255568 8.10875 0.26023C8.16025 0.332927 8.22233 0.264515 8.24511 0.266859C8.49012 0.29629 8.66111 0.413194 8.89961 0.434729C8.90797 0.435496 8.94979 0.36079 8.98728 0.440483C8.98945 0.445861 8.90409 0.45463 9.00555 0.496094C9.10755 0.537616 9.27901 0.657552 9.43215 0.686665C9.469 0.693359 9.58365 0.672292 9.62671 0.754055C9.63232 0.765023 9.61173 0.781677 9.61841 0.800134C9.63988 0.859132 9.70171 0.795227 9.71578 0.88457C9.72973 0.973995 9.79992 1.07303 9.95372 1.10659C9.9585 1.10777 10.0238 1.06805 10.0641 1.09407C10.1282 1.13538 10.2113 1.20549 10.2772 1.24939C10.3087 1.27039 10.3121 1.22211 10.318 1.22517C10.5438 1.35093 10.669 1.49171 10.8677 1.68015C10.9039 1.71442 11.0512 1.76725 11.092 1.86726C11.1355 1.97661 10.9173 2.05017 11.121 2.18147C11.201 2.2339 11.4793 2.14524 11.4971 2.36914C11.7499 2.60523 11.8857 2.89945 12.1106 3.16103C12.1207 3.17276 12.2086 3.17535 12.2272 3.20734C12.2545 3.25474 12.2407 3.2979 12.2585 3.33227C12.3323 3.47685 12.4288 3.59348 12.4951 3.73608C12.5201 3.7902 12.4795 3.78708 12.5084 3.85151C12.5368 3.91577 12.5991 3.93929 12.6174 4.0364C12.631 4.1101 12.5715 4.21259 12.5958 4.30403C12.6839 4.273 12.7069 4.33453 12.7701 4.43631C12.7822 4.45586 12.8046 4.42209 12.812 4.43081C12.8426 4.46625 12.8304 4.51328 12.861 4.54666C12.8684 4.55482 12.8988 4.54509 12.9065 4.55127C12.974 4.60371 12.9402 4.73733 12.9335 4.75944C12.9098 4.84571 12.9592 4.86821 12.9566 4.92958C12.9537 4.99056 12.9086 4.91293 12.9151 4.98114C12.9286 5.1217 12.9733 5.29501 12.9979 5.43394C13.0079 5.48936 13.0427 5.44381 13.0451 5.45156C13.0774 5.56535 13.0504 5.68939 13.1432 5.74201C12.9363 5.85192 13.1749 5.8091 13.1493 5.98334C13.1471 5.99693 13.0455 6.02355 13.0253 5.9753C13.005 5.9271 13.0284 5.84767 12.9955 5.78207C12.9879 5.7661 12.8784 5.68828 12.8705 5.67697C12.8097 5.58682 12.9595 5.54702 12.9671 5.54009C13.0474 5.46403 12.9222 5.36982 12.9089 5.34233C12.8482 5.21361 12.8419 5.09596 12.789 4.99035C12.7544 4.92157 12.6546 4.9425 12.6414 4.88614C12.5965 4.70049 12.7077 4.58717 12.5293 4.4573C12.4907 4.42975 12.4018 4.50555 12.4323 4.34474C12.4345 4.33486 12.4692 4.20811 12.3985 4.17253C12.3897 4.16813 12.3601 4.18121 12.3537 4.17324C12.3111 4.11972 12.3165 4.06895 12.2748 4.00894C12.233 3.94917 12.1784 3.87981 12.1505 3.80222C12.1337 3.7555 12.1567 3.67104 12.1579 3.64276C12.1625 3.56251 12.0658 3.53398 12.0891 3.47201C12.112 3.40891 12.2229 3.44179 12.1934 3.32687C12.1192 3.36654 12.0404 3.40292 11.9647 3.44114C11.8429 3.23432 11.7307 3.02312 11.5792 2.83371C11.5603 2.81037 11.5435 2.86228 11.5224 2.83817C11.4337 2.73695 11.3828 2.6256 11.28 2.52928C11.2002 2.45489 11.0843 2.40147 10.9969 2.33076C11.017 2.21394 10.8724 2.11949 10.7873 2.03219C10.7574 2.00143 10.7765 1.98412 10.759 1.95761C10.692 1.85835 10.6774 1.95846 10.6449 1.94817C10.5058 1.90594 10.6192 1.74955 10.4877 1.65333C10.4806 1.64783 10.3358 1.66716 10.3209 1.66436C10.2236 1.64486 10.33 1.62667 10.2885 1.58727C10.2124 1.51579 10.166 1.45392 10.0475 1.4125C10.0126 1.40036 9.90753 1.40924 9.87463 1.3316C9.87026 1.32138 9.89209 1.29497 9.88686 1.28949C9.78983 1.19286 9.73262 1.28373 9.65033 1.27863C9.56816 1.27367 9.50149 1.15561 9.48961 1.12589C9.45943 1.04881 9.54266 1.12679 9.54798 1.12374C9.61287 1.08558 9.53214 1.05522 9.47584 1.02107C9.51439 0.92336 9.42758 0.887777 9.41711 0.986193C9.41608 0.996935 9.46621 1.01083 9.47584 1.02107C9.37802 1.08659 9.2859 1.05604 9.22411 0.92336C9.19478 0.861439 9.26153 0.832388 9.10675 0.787364C9.03655 0.767598 9.03506 0.844726 8.96933 0.839416C8.81983 0.827573 8.66756 0.702247 8.52105 0.668067C8.46853 0.65585 8.50693 0.708873 8.47081 0.701959C8.37525 0.684075 8.3005 0.632455 8.20182 0.622773C8.19296 0.621983 8.20351 0.667177 8.17426 0.660293C7.9522 0.609598 7.76159 0.544846 7.52429 0.510401C7.40978 0.49325 7.20191 0.494368 7.08315 0.482495C6.94946 0.468322 6.79877 0.436372 6.65686 0.422052C6.57869 0.41406 6.5048 0.4113 6.44155 0.418641C6.32578 0.432364 6.35356 0.472892 6.30553 0.503459C6.21396 0.562448 6.03968 0.480395 6.01463 0.468214C6.01392 0.46762 6.11213 0.448533 6.05717 0.43248C6.02196 0.391565 6.01571 0.467923 6.01463 0.468214C5.99853 0.459283 5.79853 0.473896 5.76073 0.488216C5.74009 0.495561 5.75763 0.532473 5.74683 0.535579C5.48906 0.609015 5.23552 0.673395 4.97267 0.728979C4.96792 0.729512 4.96284 0.685543 4.95174 0.687344C4.79631 0.711891 4.71627 0.794464 4.60721 0.866469C4.498 0.938877 4.40178 0.965722 4.30299 0.925272C4.21717 0.970459 4.07652 0.996907 3.99512 1.01352C3.91356 1.03005 3.94092 1.11183 3.93543 1.11631C3.76415 1.26198 3.63178 1.27912 3.43304 1.391C3.33837 1.44377 3.16639 1.57252 3.07758 1.64879C3.00726 1.70866 2.95082 1.72608 2.89128 1.78822C2.88325 1.79661 2.91563 1.81939 2.91376 1.82269C2.86766 1.91629 2.84599 1.81585 2.82031 1.81502C2.72733 1.81246 2.67129 1.81608 2.59594 1.91769C2.57818 1.94134 2.60453 2.09537 2.57281 2.13481C2.53093 2.18636 2.51682 2.13438 2.47411 2.19003C2.47047 2.19479 2.49145 2.21535 2.45981 2.24364C2.31328 2.37528 2.15194 2.51989 2.02048 2.67809C2.00249 2.69959 2.06127 2.70267 2.03609 2.73411C1.91799 2.88161 1.79113 3.04407 1.66805 3.18305C1.63763 3.21723 1.62692 3.17525 1.61329 3.17786C1.52981 3.19508 1.55306 3.31509 1.54698 3.3276C1.39905 3.63278 1.2063 3.82355 1.09607 4.15472C1.08973 4.17324 1.1169 4.34039 1.02076 4.37001C1.01435 4.37184 0.915559 4.40198 0.946678 4.47487C0.948691 4.47933 1.00132 4.457 0.972939 4.52022C0.944459 4.5839 0.933759 4.69663 0.861377 4.77335C0.838575 4.79736 0.73984 4.84283 0.776023 4.94798C0.778113 4.95566 0.880675 5.12624 0.772588 5.14889C0.754897 5.15257 0.653902 5.11864 0.681272 5.23689C0.686798 5.25938 0.718112 5.22837 0.720251 5.28442C0.723803 5.37003 0.673773 5.47216 0.702359 5.58034C0.707338 5.59948 0.76529 5.6845 0.702705 5.73548C0.692893 5.74349 0.660712 5.7205 0.652119 5.7514C0.611152 5.89883 0.617146 6.06034 0.582073 6.21238C0.569815 6.26664 0.514787 6.23473 0.496106 6.29183C0.477317 6.34908 0.458183 6.46517 0.483289 6.5267C0.508362 6.58777 0.599827 6.52334 0.606252 6.61297C0.607119 6.62447 0.607944 6.63596 0.60873 6.64746C0.63462 7.02225 0.618255 7.39694 0.680034 7.77012C0.689636 7.82679 0.712344 7.7741 0.729372 7.85651C0.7885 8.16419 0.975417 8.66422 1.01876 8.93932C1.05166 9.16212 0.906241 8.92378 0.951011 9.08799C0.973554 9.16819 1.10643 9.20449 1.11752 9.2203C1.22837 9.37736 1.24766 9.51511 1.34456 9.65771C1.36462 9.6869 1.38462 9.63571 1.40124 9.66059C1.45827 9.74504 1.49774 9.84636 1.55357 9.92653C1.57872 9.96236 1.60167 9.93775 1.62157 9.97252C1.66971 10.0554 1.7068 10.1328 1.73741 10.2268C1.74028 10.2355 1.67309 10.2123 1.71429 10.2713C1.78101 10.3663 1.84685 10.5 1.95722 10.5829C1.99018 10.6074 2.04744 10.5601 2.06416 10.6579C2.06782 10.6782 1.98534 10.7209 2.10961 10.7437C2.13065 10.7484 2.31857 10.7981 2.32743 10.9021C2.32966 10.9297 2.31677 11.0209 2.35936 11.0463C2.36528 11.0495 2.37475 11.0028 2.40576 11.0275C2.51457 11.1149 2.61955 11.2159 2.73665 11.2982C2.76792 11.3201 2.75141 11.2521 2.797 11.2853C2.92215 11.3764 3.0686 11.5017 3.18542 11.5992C3.22843 11.6352 3.17715 11.6413 3.17831 11.6467C3.19792 11.7344 3.27688 11.6884 3.29736 11.6963C3.42544 11.747 3.49238 11.8339 3.6053 11.8882C3.63639 11.9032 3.63495 11.8571 3.64262 11.8575C3.72067 11.8631 3.64009 11.8979 3.67529 11.9268C3.77429 12.0082 3.90064 12.0709 4.01794 12.1219C4.06093 12.1405 4.03326 12.0769 4.07141 12.0938C4.29756 12.1929 4.53373 12.292 4.75505 12.3914C4.79685 12.4102 4.75876 12.4345 4.76534 12.4451C4.81132 12.519 4.92667 12.4742 4.94956 12.4731C5.05511 12.4692 5.08466 12.5091 5.17217 12.5254C5.59813 12.6064 6.12471 12.6941 6.53574 12.7117C6.57666 12.7137 6.617 12.7155 6.65686 12.7169C7.13485 12.7318 7.53155 12.716 7.99273 12.6073C8.02439 12.5997 7.98221 12.5615 8.00919 12.5543C8.35654 12.4636 8.7001 12.3714 9.02658 12.2178C9.05333 12.2053 8.99701 12.1815 9.03906 12.16C9.1252 12.1156 9.23622 12.0667 9.33014 12.0355C9.3759 12.0202 9.33539 12.0828 9.3813 12.0666C9.48831 12.0286 9.59667 11.9737 9.69349 11.9095C9.7345 11.882 9.64783 11.8804 9.70254 11.8478C10.0744 11.6238 10.41 11.3661 10.7735 11.1106C10.7983 11.0931 10.8807 11.1418 10.9158 11.0838C10.9017 11.0621 10.8808 11.0407 10.8634 11.0197C11.31 10.5694 11.7193 10.0834 12.0267 9.52137C12.0396 9.49778 11.975 9.51571 11.9994 9.47011C12.1404 9.20477 12.2443 8.93533 12.3919 8.66128C12.4064 8.63398 12.4823 8.67708 12.4991 8.58628C12.5023 8.57035 12.5331 8.43574 12.5249 8.39673C12.5235 8.39138 12.4784 8.40371 12.4896 8.3615C12.5556 8.11552 12.6226 7.85931 12.6864 7.6109C12.6968 7.5707 12.7319 7.62081 12.7396 7.59206C12.7941 7.38813 12.7846 7.15815 12.8327 6.95906C12.8646 6.82603 12.9356 6.87849 13.01 6.80732C13.0206 6.7972 13.0236 6.71127 13.0656 6.70705C13.1714 6.69614 13.2866 6.74052 13.3995 6.72403C13.424 6.72055 13.3981 6.59762 13.4566 6.67053C13.4606 6.67563 13.4792 6.76519 13.4985 6.78771C13.5119 6.80341 13.5553 6.7764 13.5722 6.80842C13.589 6.84059 13.5523 6.87425 13.5709 6.92725C13.5895 6.9806 13.6396 6.9589 13.6395 7.0657ZM3.62853 1.09949C3.54209 1.10051 3.60579 1.23627 3.65919 1.16585C3.6617 1.1623 3.63292 1.09937 3.62853 1.09949ZM11.8194 2.96113C11.8146 2.84124 11.6955 2.845 11.6963 2.93114C11.6961 3.01654 11.8205 2.99721 11.8194 2.96113ZM12.3918 3.82318C12.3856 3.69442 12.189 3.77584 12.2823 3.86613C12.2876 3.87142 12.3921 3.83065 12.3918 3.82318ZM13.0131 7.14956C13.0152 7.14869 13.0217 7.0871 13.0197 7.08547C12.9747 7.04963 12.962 7.17184 13.0131 7.14956ZM12.8212 4.76502C12.8382 4.72142 12.7739 4.62989 12.754 4.68456C12.7381 4.72814 12.8003 4.81893 12.8212 4.76502ZM0.809627 3.85328C0.807059 3.85339 0.785963 3.8932 0.797783 3.89775C0.835739 3.9122 0.852138 3.85123 0.809627 3.85328ZM13.1014 6.50335C13.1023 6.24518 13.2634 6.06852 13.2603 6.36162C13.2591 6.41402 13.1991 6.25151 13.1866 6.31885C13.1635 6.44023 13.2756 6.51904 13.217 6.64516C13.2065 6.66722 13.1013 6.51756 13.1011 6.5029C13.1012 6.50305 13.1013 6.5032 13.1014 6.50335ZM3.503 0.963588C3.50064 0.962552 3.44517 0.991616 3.44487 0.994124C3.43905 1.0519 3.54993 0.993794 3.503 0.963588ZM0.090587 6.38257C0.0858561 6.38575 0.0777821 6.53237 0.0819763 6.53733C0.157525 6.61421 0.173681 6.32146 0.090587 6.38257ZM7.58804 0.104065C7.66296 0.0663043 7.74799 0.0742012 7.79214 0.142809C7.72478 0.127899 7.65587 0.116597 7.58804 0.104065Z" fill="black"/>
</svg>
