<svg width="177" height="18" viewBox="0 0 177 18" fill="none" xmlns="http://www.w3.org/2000/svg">
<path d="M3.78771 0.0050849C5.95075 -0.00794148 8.78613 0.00598687 10.941 0.0251044C11.6163 0.0310336 11.2744 0.0575377 11.7406 0.062824C12.6523 0.0731291 13.5018 0.0601304 14.4028 0.0724065C14.7014 0.0766045 14.3297 0.118587 14.6428 0.122028C16.3586 0.140582 17.9818 0.129888 19.7199 0.138813C28.2813 0.182843 36.6969 0.198602 45.3631 0.217731C48.2205 0.224002 51.6941 0.262103 54.6456 0.245441C54.9901 0.243458 54.7847 0.206608 54.8502 0.203571C55.8784 0.157075 55.5366 0.231467 56.2079 0.241351C58.8723 0.280377 61.8351 0.283771 64.3992 0.269549C65.4901 0.263391 64.3964 0.190198 65.4948 0.23128C65.571 0.234056 65.2943 0.273188 65.5934 0.277362C66.2719 0.286749 67.559 0.279755 68.0849 0.282855C69.0982 0.289028 69.2659 0.288635 70.2244 0.289081C71.5347 0.290031 73.0931 0.309483 74.499 0.300616C74.799 0.298607 74.4018 0.258493 74.8803 0.251666C75.3593 0.244851 76.6265 0.248252 77.0537 0.257709C77.481 0.26717 77.2991 0.298699 77.3747 0.305926C77.9968 0.366925 79.4626 0.282442 79.6512 0.280353C83.0898 0.244753 86.0386 0.29288 89.2664 0.292743C91.7168 0.292536 94.337 0.276648 96.6686 0.278827C99.4464 0.281578 101.801 0.303315 104.499 0.299579C104.784 0.29923 104.45 0.252065 104.798 0.251544C108.494 0.246056 112.164 0.251197 115.843 0.283038C116.212 0.286273 115.737 0.327684 116.105 0.333392C118.363 0.367424 121.934 0.449179 123.275 0.268878C124.804 0.275918 126.66 0.283193 128.028 0.319537C128.91 0.342929 128.053 0.388042 129.137 0.368792C129.381 0.364503 129.063 0.324995 129.43 0.321551C130.973 0.307088 132.658 0.31993 134.184 0.299518C134.495 0.295273 134.41 0.259872 134.498 0.253497C135.237 0.201871 136.468 0.287213 136.736 0.293414C138.779 0.339658 140.271 0.32146 142.174 0.322589C142.616 0.322871 142.094 0.27532 142.519 0.273883C144.723 0.267068 147.006 0.271155 149.164 0.292254C149.644 0.297062 149.202 0.337567 149.432 0.341937C150.443 0.360712 150.668 0.284209 151.638 0.300738C151.842 0.304125 151.727 0.3388 151.764 0.342608C152.348 0.402389 152.855 0.317684 153.005 0.315814C154.905 0.290261 156.119 0.378689 157.954 0.366168C158.174 0.36458 157.679 0.320706 158.296 0.318927C162.408 0.306815 166.756 0.318867 170.825 0.353961C171.458 0.359358 171.007 0.392317 171.046 0.39638C171.695 0.459864 172.115 0.374803 172.321 0.3716C173.732 0.351619 175.062 0.402509 176.111 0.350543C176.196 0.350324 176.26 0.415455 176.26 0.5C176.269 0.661695 176.279 0.816733 176.292 0.964382C176.264 6.49554 176.295 12.0063 176.262 17.5C176.262 17.5853 176.196 17.6505 176.111 17.6508C174.758 17.6425 173.406 17.6303 172.056 17.6124C171.969 17.6114 172.124 17.5695 171.951 17.5675C169.863 17.544 170.264 17.6091 168.882 17.6888C168.534 17.7088 167.476 17.6126 167.382 17.6056C167.041 17.5796 167.395 17.5173 167.28 17.5123C166.335 17.4728 166.489 17.6789 165.213 17.6789C165.173 17.6786 165.341 17.6407 165.234 17.6369C164.901 17.625 164.571 17.6401 164.246 17.6271C163.501 17.5968 163.235 17.4967 162.097 17.555C161.953 17.5625 162.173 17.6795 161.034 17.6739C160.58 17.6716 158.57 17.6736 158.007 17.6661C157.444 17.6585 157.83 17.6208 157.79 17.6192C156.274 17.5694 156.849 17.5487 156.089 17.475C155.33 17.4015 155.541 17.5767 155.231 17.5963C154.921 17.6158 153.809 17.5747 153.536 17.5604C153.263 17.5461 153.604 17.5222 153.361 17.5141C151.751 17.4612 152.654 17.6011 152.124 17.6289C150.874 17.6948 149.9 17.5648 148.755 17.552C148.445 17.5486 148.698 17.5782 148.422 17.581C147.33 17.5915 146.673 17.551 145.43 17.5882C145.227 17.5942 144.222 17.6724 143.572 17.615C143.48 17.6068 143.742 17.5744 143.276 17.5671C142.581 17.5562 141.327 17.5492 140.58 17.56C140.028 17.568 140.661 17.6214 139.966 17.6048C139.657 17.5974 140.229 17.5662 139.649 17.5549C139.072 17.5436 137.597 17.5449 137.036 17.546C136.475 17.5471 136.782 17.5876 136.737 17.5903C136.463 17.6059 135.387 17.6255 135.292 17.6254C130.499 17.6304 126.078 17.5621 121.411 17.5847C121.045 17.5864 121.289 17.6291 121.233 17.6298C119.979 17.6477 120.968 17.5342 120.092 17.4962C120.218 17.5828 119.701 17.5671 118.818 17.5766C118.393 17.5813 118.624 17.6148 118.586 17.6183C117.954 17.6692 117.515 17.6034 117.402 17.5899C116.984 17.5404 116.529 17.5989 116.244 17.5658C115.96 17.533 116.614 17.4843 115.767 17.4849C115.53 17.5159 116.159 17.597 115.515 17.6101C113.089 17.6598 108.559 17.5962 106.608 17.5896C104.661 17.583 104.032 17.5887 102.898 17.5775C100.848 17.5572 101.599 17.6174 100.327 17.6449C99.0505 17.6724 99.671 17.5245 99.4875 17.4927C99.3074 17.4609 99.1107 17.4936 98.8867 17.4761C98.6634 17.4586 99.1468 17.437 98.6217 17.4305C98.0962 17.4239 96.6596 17.4805 96.4733 17.5137C96.0796 17.5842 96.727 17.6581 95.3366 17.6321C95.2566 17.6306 95.5161 17.5917 95.21 17.5878C92.778 17.5578 90.2515 17.5559 87.8225 17.5295C87.4886 17.5258 87.7872 17.4825 87.5928 17.4798C85.5683 17.4522 86.292 17.5251 85.1824 17.6062C85.4315 17.4983 84.8179 17.4323 83.2814 17.4317C82.3578 17.4313 82.5168 17.4784 81.9194 17.5116C81.7402 17.5216 81.0866 17.4892 80.9682 17.5114C80.5776 17.5838 81.1932 17.6649 79.6091 17.6326C79.5396 17.6311 79.7609 17.5914 79.5207 17.589C77.9684 17.5733 77.7826 17.6491 76.1046 17.6582C74.7893 17.6654 72.45 17.6193 70.9524 17.6117C70.9839 17.4905 69.5693 17.5182 68.9955 17.6019C68.0235 17.5984 66.9737 17.6032 66.0343 17.5916C65.711 17.5877 65.9234 17.5525 65.8826 17.5487C65.2575 17.4892 64.8349 17.5706 64.6252 17.5738C62.3514 17.6048 60.4989 17.5431 58.3288 17.6034C58.2518 17.6055 58.127 17.6898 57.547 17.6283C57.5094 17.624 58.2261 17.5857 57.2053 17.5827C56.1844 17.5798 54.2597 17.5346 52.8424 17.5737C52.4994 17.583 51.6318 17.6514 50.9355 17.598C50.8428 17.5907 50.9443 17.5666 50.8104 17.5531C50.3775 17.5103 50.1412 17.5955 49.6324 17.5231C49.1236 17.4508 48.0654 17.3966 46.6359 17.4465C46.5904 17.448 46.252 17.5155 45.8025 17.5144C45.0849 17.5126 44.0662 17.4986 43.317 17.499C42.9582 17.4992 43.1878 17.5411 43.1255 17.5419C40.7134 17.5654 38.9966 17.528 36.4125 17.5118C35.9388 17.5088 34.5775 17.5659 33.6604 17.5207C32.6535 17.4713 33.6882 17.2655 31.3737 17.3146C30.4402 17.3342 29.2583 17.5952 27.5806 17.4599C24.3269 17.4935 21.3179 17.4242 18.0551 17.4721C17.9084 17.4742 17.4445 17.5471 17.0995 17.5461C16.5875 17.5445 16.3063 17.5104 15.9407 17.5082C14.4085 17.4979 13.0064 17.527 11.5291 17.5225C10.9683 17.5209 11.1644 17.4857 10.4955 17.4837C9.82696 17.4818 9.38113 17.5281 8.47522 17.5057C7.79101 17.4887 7.10694 17.3939 6.19877 17.3829C6.16417 17.4763 5.54041 17.4744 4.43179 17.4991C4.2187 17.5039 4.44721 17.5364 4.34639 17.5403C3.93618 17.5571 3.5565 17.5301 3.16695 17.5484C3.07217 17.5528 3.06772 17.5847 2.99025 17.5901C2.33149 17.6371 1.24623 17.5653 1.05983 17.5528C0.658657 17.5261 0.377527 17.5275 0.111038 17.5306C0.0937492 17.5306 0.0805199 17.5173 0.0804751 17.5C0.0780987 17.292 0.0747214 17.0929 0.0829185 16.8526C0.101612 16.3056 0.12498 17.1235 0.136324 16.4845C0.159788 15.1599 0.154633 13.458 0.156099 12.1127C0.156488 11.576 0.113881 11.9422 0.112948 11.8654C0.102142 10.7554 0.147462 9.633 0.0625939 9.01758C0.282032 8.24802 0.0413095 8.34827 0.0852378 6.76175C0.0887908 6.63678 0.192561 6.47779 0.207796 6.95759C0.223016 7.43736 0.190579 8.16489 0.214327 8.83058C0.2199 8.98822 0.31714 9.89124 0.32303 10.0144C0.369065 10.9796 0.213994 11.1163 0.205477 11.1674C0.113561 11.7464 0.218319 12.8499 0.225557 13.1405C0.258725 14.4699 0.236917 15.5994 0.260591 16.7113C0.26889 17.1057 0.302571 17.3071 0.331162 17.5L0.111038 17.2799C0.27376 17.2558 0.430411 17.2353 0.691714 17.2367C2.58996 17.247 3.2526 17.3887 5.04141 17.2658C5.42496 17.2396 5.04379 17.1286 6.41817 17.2159C6.50452 17.2214 7.52491 17.3012 8.11446 17.2507C8.18853 17.2443 8.18615 17.212 8.2838 17.2093C8.93824 17.1917 9.37464 17.2175 10.0876 17.2051C10.8004 17.1928 11.6576 17.1744 12.4715 17.1853C12.962 17.1919 13.5914 17.2522 13.8262 17.267C14.4892 17.3095 15.2001 17.2398 15.6108 17.2912C16.025 17.343 15.2153 17.4216 16.3014 17.455C16.3417 17.3709 16.434 17.2847 16.4987 17.2001C18.879 17.2031 21.2211 17.2303 23.6093 17.2265C23.9054 17.226 23.6026 17.1808 23.92 17.1791C25.2592 17.1719 26.4289 17.2041 27.8177 17.1913C28.8927 17.1812 30.0714 17.1333 31.1955 17.1213C31.8821 17.2175 33.5502 17.1848 34.7619 17.1936C35.1863 17.1966 35.158 17.2223 35.4598 17.2307C36.5986 17.2617 36.065 17.1767 36.3772 17.1633C37.7166 17.1062 37.8313 17.2986 39.4105 17.2939C39.4941 17.2937 40.5168 17.1911 40.6577 17.1847C41.5527 17.1431 40.8058 17.2204 41.3659 17.228C42.3886 17.2419 43.0992 17.2663 44.2991 17.2363C44.649 17.2274 45.4882 17.1635 46.1677 17.2129C46.2571 17.2194 46.2077 17.2533 46.2796 17.2553C47.5818 17.2884 47.616 17.1819 48.3602 17.1458C49.1045 17.1097 50.254 17.1833 50.4879 17.2045C51.1 17.2593 50.0189 17.2279 49.9858 17.2333C49.5964 17.2973 50.4349 17.2863 51.0754 17.2917C51.1682 17.3961 52.064 17.3898 51.7395 17.2969C51.7026 17.2867 51.2041 17.2964 51.0754 17.2917C51.6377 17.1892 52.6222 17.1761 53.7097 17.2718C54.2187 17.3167 53.7375 17.369 55.2838 17.3499C55.9855 17.3413 55.7143 17.2693 56.3336 17.2497C57.7485 17.205 59.5869 17.2721 61.0456 17.2615C61.5749 17.2577 61.0592 17.2183 61.421 17.2143C62.3812 17.2037 63.228 17.2332 64.1922 17.2181C64.2796 17.2166 64.0661 17.1754 64.366 17.1749C66.6392 17.1701 68.6187 17.1965 70.9921 17.1972C72.1389 17.1976 74.1892 17.1749 75.3772 17.1794C77.4361 17.1871 79.969 17.247 81.728 17.2325C82.8752 17.2231 82.6235 17.1819 83.115 17.1539C84.0636 17.0994 85.7426 17.1969 85.9687 17.212C85.9756 17.2125 84.9884 17.2222 85.5152 17.2434C85.8214 17.2875 85.9576 17.2122 85.9687 17.212C86.1171 17.2218 88.0892 17.2311 88.4807 17.2232C88.6935 17.2189 88.5745 17.1799 88.6854 17.1784C91.3223 17.1434 93.9638 17.1335 96.6383 17.1518C96.6853 17.1526 96.6144 17.1962 96.7251 17.1976C98.2734 17.217 99.2648 17.1635 100.542 17.1318C101.819 17.1001 102.831 17.1107 103.587 17.1857C104.55 17.1763 105.932 17.2094 106.728 17.2295C107.523 17.2497 107.634 17.1646 107.704 17.1629C109.887 17.1091 111.148 17.1578 113.413 17.1654C114.489 17.1691 116.625 17.1568 117.79 17.1475C118.712 17.14 119.267 17.1599 120.115 17.1472C120.23 17.1455 120.114 17.1076 120.149 17.1062C121.097 17.0609 120.641 17.1534 120.837 17.17C121.546 17.2301 121.984 17.2621 123.197 17.2338C123.477 17.2273 124.292 17.0941 124.802 17.0863C125.466 17.0764 125.215 17.1242 125.91 17.1126C125.969 17.1116 125.957 17.0822 126.385 17.0835C128.375 17.0891 130.544 17.1063 132.611 17.1033C132.893 17.103 132.531 17.0563 132.939 17.0551C134.854 17.0496 136.952 17.0513 138.817 17.0732C139.276 17.0787 138.989 17.1114 139.088 17.1211C139.7 17.1799 140.568 17.0945 140.711 17.0929C144.126 17.0518 146.74 17.1291 150.22 17.0923C150.41 17.0902 151.868 16.9986 152.519 17.0771C152.563 17.0824 153.207 17.1627 153.776 17.1078C153.812 17.1043 153.41 17.063 154.11 17.0672C154.811 17.0714 155.937 17.0438 156.899 17.0892C157.204 17.1035 157.924 17.1837 158.833 17.1198C158.892 17.1153 160.295 16.9709 160.796 17.0705C160.877 17.0869 160.792 17.1924 161.876 17.1383C162.084 17.1279 161.707 17.1043 162.253 17.0896C163.09 17.067 164.198 17.0953 165.226 17.0483C165.406 17.0399 166.169 16.9683 166.781 17.0227C166.877 17.0312 166.695 17.0664 167.018 17.0704C168.556 17.0893 170.166 17.0657 171.727 17.0901C172.28 17.0986 171.997 17.1556 172.574 17.1708C173.15 17.1861 174.312 17.2007 174.915 17.1747C175.518 17.1487 174.859 17.058 175.763 17.0507C175.879 17.0498 175.995 17.0489 176.111 17.0481L175.659 17.5C175.633 13.6885 175.684 9.90983 175.691 6.10185C175.692 5.51989 175.66 6.00234 175.659 5.14474C175.658 3.86275 175.653 2.20314 175.651 0.5L176.111 0.960002C173.614 0.962492 171.022 0.956623 169.391 0.915604C167.193 0.860347 169.959 0.818279 168.279 0.795793C167.469 0.785066 166.592 0.890555 166.396 0.893876C164.485 0.927611 163.156 0.880882 161.435 0.895219C161.08 0.898194 161.429 0.940949 161.126 0.943009C160.093 0.950424 159.008 0.93134 158.021 0.93483C157.578 0.936495 157.66 0.96915 157.252 0.96663C156.277 0.960975 155.415 0.947249 154.465 0.916642C154.378 0.913853 154.962 0.873231 154.241 0.87172C153.073 0.869391 151.624 0.839197 150.281 0.870378C149.883 0.879757 149.867 0.95439 149.011 0.902848C148.831 0.892083 149.06 0.802466 148.062 0.879899C147.895 0.892767 146.218 0.99721 145.396 0.929887C145.179 0.912168 144.625 0.838833 144.146 0.850358C144.081 0.852197 144.341 0.892285 143.944 0.896195C142.544 0.909279 141.078 0.905002 139.64 0.917558C139.256 0.92099 139.828 0.962473 139.256 0.966264C137.682 0.976749 135.717 0.966186 134.178 0.953202C133.611 0.948336 134.003 0.913973 133.962 0.910233C133.298 0.849409 132.906 0.931508 132.685 0.936295C131.315 0.964961 130.272 0.926395 129.009 0.936601C128.66 0.939313 128.907 0.978459 128.838 0.981949C128.118 1.01605 128.654 0.945754 128.199 0.938004C126.923 0.916062 125.5 0.919208 124.21 0.92421C123.736 0.926105 124.269 0.971496 123.843 0.972672C121.325 0.980494 118.708 0.97615 116.251 0.951127C115.788 0.946333 116.079 0.911381 115.983 0.903397C115.318 0.847545 114.344 0.923728 114.12 0.930985C113.101 0.964121 112.706 0.933212 111.806 0.938981C107.409 0.967705 101.981 0.947234 97.8318 0.934586C92.4244 0.918309 88.2283 0.885059 83.0717 0.893693C82.744 0.894198 83.0745 0.940695 82.7919 0.941727C79.1444 0.952936 75.5534 0.934767 71.8986 0.948197C71.5986 0.949217 72.031 0.993297 71.5496 0.996415C70.5622 1.00312 69.3114 1.00072 68.3131 0.986649C67.8261 0.979868 68.4793 0.942043 67.9891 0.93599C66.8479 0.921809 65.6245 0.91867 64.4523 0.925736C63.9534 0.92884 64.7061 0.973922 64.0576 0.974442C59.6407 0.978915 55.3027 0.986679 50.8392 0.9283C50.5332 0.92429 50.2647 0.832665 49.6141 0.850236C49.5651 0.875664 49.5678 0.905576 49.5464 0.932755C43.1164 0.947396 36.7521 0.915633 30.3041 0.910722C30.0322 0.910525 30.502 0.959073 29.9757 0.958939C26.9294 0.958222 23.9712 0.971671 20.8552 0.923417C20.546 0.918698 20.7046 0.833291 19.7935 0.846208C19.6328 0.848565 18.2606 0.859955 17.9058 0.878495C17.8576 0.881292 18.108 0.921156 17.6658 0.922318C15.0962 0.928372 12.4033 0.919271 9.83811 0.894914C9.42411 0.890906 9.86499 0.848454 9.57012 0.845231C7.47845 0.822696 5.2033 0.854967 3.20461 0.816423C1.86675 0.79047 2.36207 0.717087 1.65115 0.644853C1.55059 0.634662 0.722153 0.633047 0.679312 0.591021C0.569326 0.48534 0.970596 0.369621 0.805945 0.256976C0.771159 0.232713 -0.338338 0.258846 0.318555 0.200214C0.364446 0.19629 1.16884 0.17683 1.36696 0.15694C1.5049 0.143188 1.25633 0.100447 1.53777 0.0828435C1.81918 0.0652564 2.12842 0.101085 2.595 0.080402C3.06138 0.0594636 2.85631 0.0108407 3.78771 0.0050849ZM110.309 17.3194C111.045 17.3603 111.154 17.2107 110.357 17.2465C110.319 17.2484 110.271 17.3174 110.309 17.3194ZM21.2077 17.3431C22.1705 17.409 22.8293 17.312 22.1501 17.2611C21.471 17.2102 20.9144 17.3231 21.2077 17.3431ZM11.2243 17.3912C12.3495 17.4432 12.5267 17.2312 11.3215 17.274C11.2514 17.2765 11.1586 17.3882 11.2243 17.3912ZM4.94802 0.624285C4.93785 0.622299 4.34234 0.620363 4.32811 0.622331C4.01101 0.669827 5.20179 0.673665 4.94802 0.624285ZM1.31752 17.4436C1.66874 17.4723 2.68015 17.4392 2.2437 17.4035C1.89235 17.3749 0.880046 17.408 1.31752 17.4436ZM148.724 17.479C148.736 17.4813 149.163 17.4833 149.154 17.4707C149.125 17.4301 148.531 17.4416 148.724 17.479ZM0.16495 1.86871C0.156967 4.35641 -0.0182079 5.86472 0.00155891 3.15565C0.00513531 2.66506 0.0574209 4.21297 0.073214 3.58856C0.101986 2.44602 -0.00800224 1.68734 0.0509362 0.521394C0.0617239 0.310338 0.165794 1.72681 0.165194 1.87313C0.165112 1.87165 0.165031 1.87018 0.16495 1.86871ZM110.733 17.4991C110.748 17.501 111.339 17.5029 111.353 17.501C111.673 17.4535 110.482 17.4497 110.733 17.4991ZM173.637 17.5715C173.67 17.5757 175.041 17.5797 175.086 17.5758C175.801 17.4981 173.028 17.49 173.637 17.5715ZM70.9288 17.6085C70.2839 17.6563 69.5125 17.6619 68.9984 17.6019C69.6393 17.6051 70.2844 17.6056 70.9288 17.6085Z" fill="black"/>
</svg>
