<svg width="19" height="17" viewBox="0 0 19 17" fill="none" xmlns="http://www.w3.org/2000/svg">
<path d="M9.30899 0.136719L18.4023 15.8867H0.215724L9.30899 0.136719Z" fill="#D9D9D9"/>
<path d="M9.99744 0.33932C10.1616 0.597583 10.3499 0.951625 10.4856 1.22496C10.5282 1.31059 10.4811 1.28198 10.5095 1.34169C10.565 1.45845 10.6363 1.55593 10.6893 1.67237C10.7068 1.71102 10.6442 1.68651 10.6633 1.72656C10.7685 1.94586 10.8925 2.13921 11.0076 2.35643C11.5745 3.42644 12.1556 4.46448 12.7515 5.53486C12.9481 5.88777 13.1605 6.33202 13.3836 6.68497C13.4096 6.72616 13.427 6.68259 13.4343 6.68909C13.5472 6.7917 13.4586 6.78705 13.4975 6.87417C13.652 7.21983 13.8585 7.5842 14.052 7.89097C14.1344 8.02143 14.1205 7.85094 14.1626 8.00594C14.1656 8.01666 14.1121 8.00235 14.1296 8.04105C14.1695 8.12879 14.2665 8.28286 14.301 8.34877C14.3672 8.47591 14.3794 8.49623 14.4468 8.61378C14.5386 8.77465 14.6318 8.97515 14.7389 9.1428C14.7618 9.17853 14.7685 9.10984 14.8082 9.16501C14.848 9.22024 14.9346 9.37705 14.9566 9.43407C14.9786 9.49111 14.9384 9.4846 14.9375 9.49747C14.9287 9.60413 15.1054 9.74132 15.1206 9.76335C15.3944 10.1665 15.5611 10.5515 15.7894 10.9465C15.9627 11.2464 16.1617 11.5592 16.3245 11.8457C16.5185 12.1871 16.666 12.4861 16.86 12.8146C16.8804 12.8493 16.8977 12.7848 16.9227 12.8272C17.1886 13.2768 17.4436 13.7286 17.676 14.1949C17.6993 14.2417 17.6298 14.2042 17.6509 14.2522C17.781 14.5455 17.9626 15.0236 18.2135 15.0975C18.3155 15.2882 18.4404 15.5191 18.5055 15.7047C18.5416 15.8071 18.4738 15.7616 18.5119 15.8234L18.6236 16.0098L18.4023 16.0134C18.39 16.0137 18.3736 16.0151 18.3515 16.0179C18.317 16.0222 18.3619 16.0617 18.3101 16.0652C18.092 16.0796 17.8538 16.0668 17.6381 16.0872C17.5942 16.0914 17.6062 16.1268 17.5937 16.1332C17.4892 16.1848 17.3153 16.0995 17.2774 16.0933C16.9886 16.0471 16.7777 16.0653 16.5087 16.0641C16.4463 16.0638 16.5201 16.1114 16.46 16.1128C16.1485 16.1197 15.8258 16.1156 15.5208 16.0945C15.4529 16.0897 15.5153 16.0492 15.4829 16.0448C15.3399 16.026 15.3082 16.1025 15.1711 16.086C15.1422 16.0826 15.1585 16.0479 15.1532 16.0441C15.0707 15.9843 14.999 16.069 14.9778 16.0709C14.7092 16.0965 14.5376 16.008 14.2782 16.0206C14.2472 16.0221 14.3172 16.066 14.2299 16.0678C13.6488 16.0799 13.0342 16.0679 12.459 16.0328C12.3695 16.0274 12.4334 15.9944 12.4278 15.9903C12.336 15.9269 12.2767 16.0119 12.2475 16.0151C12.0175 16.0382 11.8026 15.9668 11.6462 16.0682C10.6719 16.033 9.70204 16.0899 8.73576 15.9991C8.72348 15.9981 8.74549 15.9562 8.72098 15.9543C8.42585 15.9307 8.48253 15.9959 8.28724 16.0755C8.23805 16.0955 8.0884 15.9993 8.07516 15.9923C8.02692 15.9663 8.07696 15.904 8.0608 15.899C7.92713 15.8595 7.94891 16.0656 7.76859 16.0657C7.76294 16.0653 7.78663 16.0274 7.7715 16.0236C7.72448 16.0118 7.67785 16.0268 7.63185 16.0138C7.52654 15.9836 7.48903 15.8834 7.32819 15.9417C7.30783 15.9493 7.33892 16.0662 7.17792 16.0607C7.11374 16.0583 6.82963 16.0604 6.75 16.0528C6.67048 16.0452 6.72508 16.0075 6.71941 16.0059C6.50513 15.9561 6.58638 15.9354 6.47902 15.8617C6.37168 15.7882 6.40145 15.9635 6.35768 15.983C6.31385 16.0025 6.15674 15.9614 6.11813 15.9471C6.07954 15.9328 6.12767 15.9089 6.09336 15.9008C5.86584 15.8479 5.9935 15.9878 5.91853 16.0156C5.74179 16.0815 5.60414 15.9515 5.44233 15.9388C5.39855 15.9353 5.43427 15.9649 5.39529 15.9677C5.24089 15.9783 5.14803 15.9377 4.97238 15.9749C4.94364 15.981 4.80164 16.0591 4.70972 16.0018C4.6967 15.9935 4.73369 15.9611 4.66788 15.9538C4.56959 15.943 4.39247 15.9359 4.2868 15.9467C4.20879 15.9547 4.29821 16.0081 4.20001 15.9915C4.15637 15.9841 4.23725 15.9529 4.15526 15.9416C4.07371 15.9303 3.86518 15.9316 3.78583 15.9327C3.70663 15.9338 3.74998 15.9743 3.74358 15.977C3.70485 15.9927 3.55284 16.0122 3.53941 16.0121C2.86186 16.0171 2.23706 15.9488 1.57738 15.9714C1.52561 15.9731 1.5601 16.0158 1.5522 16.0165C1.37497 16.0344 1.5147 15.9209 1.3909 15.8829C1.40879 15.9695 1.33571 15.9539 1.21087 15.9634C1.1507 15.968 1.18347 16.0016 1.17798 16.005C1.08877 16.0559 1.02664 15.9901 1.01065 15.9767C0.951565 15.9271 0.887262 15.9857 0.847056 15.9526C0.806871 15.9197 0.899355 15.871 0.779622 15.8716C0.74605 15.9026 0.834934 15.9837 0.744033 15.9968C0.602895 16.0173 0.411424 16.0185 0.215724 16.0125L3.57628e-07 16.0159L0.106826 15.8238C0.254255 15.5858 0.418965 15.3478 0.503475 15.2092C0.646799 14.9741 0.686291 14.8943 0.776183 14.761C0.938573 14.5202 0.833422 14.5821 0.899524 14.4126C0.965893 14.2426 1.05016 14.3925 1.09067 14.386C1.13092 14.3798 1.11649 14.3394 1.14745 14.3207C1.17836 14.3021 1.16292 14.3721 1.20572 14.3111C1.24853 14.25 1.30109 14.0459 1.28545 14.0065C1.25227 13.923 1.14248 13.9653 1.26325 13.8081C1.27023 13.7991 1.28558 13.8503 1.31062 13.8148C1.50843 13.5321 1.68859 13.2237 1.88319 12.9397C1.91 12.9006 1.92637 12.9588 1.9424 12.9363C2.10945 12.7024 1.99512 12.7545 2.00334 12.5781C2.07915 12.6625 2.17967 12.6204 2.28881 12.4327C2.35445 12.3198 2.30241 12.3157 2.31588 12.226C2.31987 12.199 2.39408 12.1352 2.38326 12.1096C2.34814 12.0256 2.23442 12.0604 2.37434 11.8827C2.38057 11.8749 2.39927 11.9218 2.41832 11.8936C2.54164 11.7115 2.48916 11.6509 2.59981 11.4409C2.68653 11.2763 2.89186 11.013 3.00421 10.8334C3.10701 10.8979 3.18293 10.7109 3.15107 10.5988C3.22273 10.4816 3.29282 10.3507 3.36923 10.2415C3.39549 10.2039 3.41088 10.2475 3.41705 10.2444C3.51277 10.1976 3.47219 10.1052 3.48425 10.0779C3.6181 9.78409 3.80242 9.58815 3.90359 9.29239C3.90715 9.28188 3.84302 9.22448 3.93728 9.18423C3.94361 9.18176 3.92615 9.28865 4.00086 9.16518C4.07559 9.04169 4.25071 8.82868 4.31708 8.63566C4.33318 8.58898 4.33527 8.44859 4.43075 8.39007C4.44359 8.38234 4.45734 8.40685 4.47845 8.39718C4.54614 8.36561 4.4891 8.29411 4.5877 8.268C4.6863 8.24188 4.80801 8.13942 4.86581 7.9395C4.86777 7.9332 4.83324 7.85804 4.86593 7.80354C4.91817 7.71659 5.00234 7.59892 5.05492 7.50698C5.08007 7.46295 5.02755 7.4701 5.03128 7.4621C5.18142 7.15508 5.3351 6.96362 5.53177 6.6554C5.5679 6.59895 5.61461 6.40374 5.71855 6.31407C5.83255 6.21554 5.93759 6.44507 6.05872 6.13724C6.10772 6.01316 5.9652 5.73798 6.20088 5.60024C6.40181 5.1852 6.6744 4.85148 6.86355 4.42816C6.87209 4.40914 6.84179 4.31592 6.86703 4.27419C6.90462 4.21231 6.95397 4.19493 6.98175 4.15129C7.09892 3.96887 7.17278 3.78267 7.28111 3.60411C7.32217 3.53628 7.3388 3.57788 7.38778 3.49698C7.4367 3.41612 7.42806 3.33837 7.51147 3.23867C7.57461 3.16345 7.70501 3.12709 7.77876 3.02144C7.70026 2.97047 7.74601 2.89509 7.80299 2.74705C7.81391 2.71857 7.76959 2.73027 7.7733 2.71596C7.78777 2.65736 7.83795 2.62437 7.84968 2.56756C7.85258 2.55377 7.82525 2.53726 7.82606 2.52508C7.83191 2.42095 7.97079 2.324 7.99479 2.30743C8.08639 2.24372 8.07403 2.1821 8.12895 2.12437C8.1838 2.06676 8.14623 2.17857 8.20121 2.10601C8.31515 1.9556 8.43096 1.7447 8.52731 1.58076C8.56558 1.51525 8.5028 1.53877 8.50742 1.5289C8.57651 1.38763 8.69508 1.2729 8.66507 1.15513C8.9095 1.17065 8.69394 1.06256 8.84411 0.890316C8.85602 0.876794 8.95712 0.909216 8.93641 0.975567C8.91568 1.0419 8.83617 1.11475 8.80969 1.2081C8.80338 1.23019 8.82377 1.38934 8.82017 1.40737C8.79183 1.54853 8.64786 1.48773 8.63688 1.48973C8.51636 1.51465 8.52909 1.70211 8.51482 1.7413C8.44959 1.92061 8.35089 2.04796 8.29281 2.19591C8.25466 2.29257 8.3376 2.35207 8.29455 2.42042C8.1515 2.64765 7.98195 2.65791 7.96194 2.9383C7.95752 2.99836 8.08061 3.00721 7.90787 3.1318C7.897 3.13961 7.75572 3.22459 7.75781 3.32201C7.75809 3.33426 7.78628 3.35015 7.78173 3.36346C7.75071 3.45236 7.69754 3.4929 7.65785 3.58634C7.61816 3.67977 7.57352 3.7939 7.50649 3.88804C7.46614 3.9448 7.36946 3.9917 7.34008 4.01307C7.25641 4.07296 7.26653 4.19484 7.19292 4.21938C7.11884 4.24421 7.10801 4.10579 7.0023 4.22203C7.07225 4.26899 7.14044 4.32344 7.20908 4.37363C7.0383 4.66352 6.84924 4.93661 6.68367 5.23081C6.66322 5.26733 6.72375 5.25286 6.70284 5.29259C6.61441 5.4601 6.50385 5.58718 6.41681 5.76359C6.34958 5.90023 6.30771 6.06846 6.23871 6.21208C6.10688 6.24803 6.01728 6.46854 5.92403 6.61247C5.8914 6.66291 5.87116 6.64659 5.84257 6.67935C5.73524 6.80325 5.84657 6.78043 5.83609 6.82533C5.79087 7.01784 5.61614 6.93568 5.50865 7.13136C5.5029 7.1417 5.51944 7.31816 5.51502 7.33859C5.48783 7.46897 5.47364 7.33888 5.42749 7.40366C5.34322 7.52191 5.27179 7.59666 5.213 7.75855C5.19598 7.80583 5.19203 7.94053 5.10119 7.99897C5.08927 8.00668 5.0634 7.98368 5.0566 7.99149C4.93591 8.13435 5.02573 8.1918 5.00438 8.30092C4.98302 8.41007 4.8381 8.51401 4.80321 8.53205C4.71248 8.57956 4.81607 8.46293 4.81375 8.45618C4.78582 8.37651 4.73612 8.48465 4.68616 8.56036C4.58916 8.51949 4.53127 8.63229 4.63473 8.63905C4.64614 8.63961 4.67293 8.57372 4.68616 8.56036C4.73516 8.68043 4.67695 8.8075 4.51717 8.89273C4.44233 8.9326 4.43102 8.84754 4.33832 9.04638C4.29621 9.13661 4.37765 9.13937 4.35086 9.22498C4.28961 9.42053 4.10158 9.61204 4.00765 9.79587C3.97356 9.86259 4.0441 9.81915 4.02197 9.86542C3.96337 9.9883 3.87794 10.0772 3.8229 10.2028C3.81796 10.2142 3.86873 10.2087 3.84799 10.2456C3.69148 10.5263 3.52873 10.7554 3.36035 11.0456C3.27902 11.1858 3.1538 11.4481 3.06589 11.5912C2.91372 11.8394 2.68282 12.1195 2.57112 12.3421C2.49812 12.4872 2.55159 12.477 2.54117 12.5512C2.52128 12.6945 2.31818 12.8513 2.28912 12.8714C2.2882 12.872 2.34955 12.7463 2.29401 12.8002C2.23419 12.8157 2.28975 12.87 2.28912 12.8714C2.27018 12.8847 2.12271 13.1215 2.10186 13.1733C2.09056 13.2015 2.13278 13.2065 2.12625 13.2208C1.97015 13.5611 1.79207 13.8894 1.58724 14.2076C1.58323 14.213 1.55042 14.1825 1.54146 14.1954C1.41522 14.3752 1.39143 14.5233 1.32865 14.6954C1.26588 14.8676 1.18513 14.9862 1.06678 15.0412C1.00687 15.1639 0.880483 15.3165 0.806854 15.4038C0.733229 15.4911 0.799017 15.5472 0.795527 15.5566C0.716591 15.7722 0.624941 15.8997 0.515995 16.0601L0.215724 15.54C0.286113 15.5451 0.36142 15.5501 0.446825 15.5521C0.598997 15.5559 0.900831 15.5435 1.06559 15.5342C1.1958 15.5267 1.27424 15.5467 1.39423 15.5339C1.41046 15.5322 1.39407 15.4944 1.39901 15.4929C1.53291 15.4476 1.46857 15.5402 1.49621 15.5567C1.59644 15.6168 1.65836 15.6488 1.82984 15.6205C1.86939 15.6141 1.9846 15.4808 2.0567 15.473C2.15044 15.4631 2.11506 15.5109 2.21321 15.4993C2.22161 15.4984 2.21986 15.4689 2.28044 15.4702C2.56163 15.4758 2.8682 15.493 3.16041 15.49C3.20032 15.4897 3.14915 15.443 3.20682 15.4418C3.47743 15.4363 3.77403 15.438 4.03767 15.4599C4.10256 15.4654 4.06188 15.4981 4.07597 15.5079C4.16244 15.5666 4.28509 15.4812 4.30532 15.4796C4.78802 15.4385 5.15744 15.5159 5.64942 15.479C5.6762 15.4769 5.88234 15.3853 5.97431 15.4639C5.98061 15.4691 6.0716 15.5494 6.15205 15.4945C6.15705 15.4911 6.10035 15.4497 6.1993 15.4539C6.29824 15.4581 6.45748 15.4305 6.59349 15.4759C6.63655 15.4903 6.73832 15.5704 6.86676 15.5065C6.87514 15.5021 7.07342 15.3576 7.1442 15.4573C7.15568 15.4737 7.14366 15.5792 7.29697 15.5251C7.32625 15.5146 7.27308 15.4911 7.35025 15.4764C7.46847 15.4537 7.62512 15.482 7.77046 15.435C7.79581 15.4267 7.9037 15.3551 7.99024 15.4094C8.0038 15.4179 7.97804 15.4531 8.02375 15.4571C8.24109 15.476 8.46867 15.4524 8.68935 15.4768C8.76751 15.4854 8.72755 15.5423 8.80902 15.5575C8.89052 15.5728 9.05468 15.5875 9.13995 15.5614C9.22523 15.5354 9.13207 15.4447 9.25983 15.4374C9.81525 15.4059 10.3655 15.4591 10.9201 15.4669C11.0023 15.4681 10.9341 15.4356 11.0554 15.435C11.5023 15.4326 12.2739 15.4021 12.6617 15.4711C12.9724 15.5264 12.5814 15.5684 12.8188 15.5909C12.9334 15.6017 13.0574 15.4962 13.085 15.4928C13.3552 15.4591 13.543 15.5058 13.7862 15.4915C13.8364 15.4885 13.7872 15.4458 13.8299 15.4437C13.9759 15.4363 14.1294 15.4554 14.2689 15.4519C14.3315 15.4502 14.3199 15.4176 14.3775 15.4201C14.5153 15.4257 14.6372 15.4395 14.7715 15.4701C14.7837 15.4729 14.7012 15.5135 14.8031 15.515C14.9681 15.5173 15.173 15.5475 15.3628 15.5163C15.4191 15.507 15.4213 15.4323 15.5424 15.4839C15.5678 15.4946 15.5354 15.5843 15.6764 15.5068C15.7002 15.494 15.9371 15.3895 16.0534 15.4568C16.084 15.4746 16.1623 15.5479 16.2301 15.5364C16.2392 15.5345 16.2025 15.4944 16.2586 15.4905C16.4564 15.4774 16.6637 15.4817 16.8669 15.4692C16.9212 15.4657 16.8404 15.4242 16.9213 15.4205C17.1437 15.41 17.4214 15.4205 17.6389 15.4335C17.7191 15.4384 17.6636 15.4727 17.6695 15.4765C17.7633 15.5373 17.8188 15.4552 17.8499 15.4504C18.0436 15.4218 18.1911 15.4603 18.3696 15.4501C18.4189 15.4474 18.384 15.4083 18.3938 15.4048C18.3967 15.4038 18.3996 15.4029 18.4023 15.402L17.9825 16.1291C17.9144 16.0657 18.0067 16.0927 17.982 16.0348C17.9108 15.8677 17.8076 15.6951 17.712 15.5397C17.6769 15.4826 17.6752 15.5705 17.6442 15.519C17.4595 15.2147 17.2782 14.8922 17.1263 14.5789C17.0977 14.5199 17.1486 14.538 17.1487 14.5222C17.1501 14.413 17.0153 14.3318 16.9931 14.308C16.8924 14.1998 16.8912 14.1359 16.8226 14.0287C16.4871 13.5049 16.1212 12.8302 15.8389 12.3159C15.4708 11.6459 15.203 11.1156 14.8311 10.4887C14.8075 10.4489 14.7906 10.5126 14.7698 10.4785C14.5023 10.0376 14.2642 9.58895 13.9943 9.14828C13.9722 9.11208 13.9646 9.18704 13.9279 9.12967C13.8523 9.01216 13.766 8.85785 13.7076 8.72861C13.679 8.66561 13.758 8.72665 13.7286 8.66363C13.6602 8.51683 13.5764 8.36551 13.4875 8.22555C13.4495 8.16604 13.4637 8.28071 13.4174 8.2016C13.1014 7.66316 12.7881 7.13604 12.5232 6.56047C12.505 6.52101 12.5654 6.44233 12.5042 6.37147C12.4787 6.37819 12.453 6.39347 12.428 6.40444C11.9609 5.62467 11.5386 4.82974 11.0871 4.03799C11.0681 4.00461 11.0592 4.0864 11.0222 4.0219C10.8075 3.64865 10.5868 3.29326 10.4084 2.8877C10.3906 2.8475 10.4758 2.82421 10.4002 2.71914C10.3868 2.70065 10.2799 2.53837 10.2388 2.50421C10.233 2.49971 10.2162 2.55029 10.1839 2.49674C9.99705 2.18522 9.81462 1.85104 9.65443 1.52486C9.62864 1.47218 9.69656 1.50492 9.67851 1.46721C9.55021 1.19991 9.36147 0.937543 9.25359 0.673612C9.18152 0.496869 9.28008 0.520809 9.29239 0.397669C9.29411 0.380265 9.23696 0.278049 9.27033 0.251791C9.35407 0.185488 9.48265 0.176747 9.56857 0.10027C9.58712 0.0838804 9.48608 -0.0388661 9.58328 0.0122276C9.58992 0.0158831 9.66362 0.104618 9.69485 0.118925C9.71651 0.128934 9.73595 0.0771362 9.77109 0.102785C9.80621 0.12844 9.79704 0.184207 9.84792 0.23098C9.89902 0.2776 9.92663 0.228186 9.99744 0.33932ZM0.47591 15.7972C0.388504 15.8669 0.510336 15.955 0.535641 15.8396C0.536715 15.8339 0.480329 15.7935 0.47591 15.7972ZM6.75249 4.87858C6.62733 4.96345 6.66476 5.09259 6.75688 5.03492C6.84894 4.97723 6.79054 4.85267 6.75249 4.87858ZM7.41635 3.63244C7.29179 3.74417 7.46292 3.87188 7.51096 3.70293C7.51382 3.69314 7.42361 3.6259 7.41635 3.63244ZM9.5432 0.790953C9.5442 0.788715 9.50379 0.714851 9.50108 0.714093C9.43754 0.699025 9.51837 0.846707 9.5432 0.790953ZM8.07109 2.39354C8.02142 2.42219 7.97862 2.56255 8.04036 2.52696C8.09004 2.4983 8.13291 2.35783 8.07109 2.39354ZM5.43796 15.8658C5.4396 15.868 5.49995 15.87 5.49873 15.8574C5.49464 15.8168 5.41066 15.8283 5.43796 15.8658ZM9.25895 0.331218C9.07622 0.631744 8.81792 0.728791 9.0265 0.407056C9.06426 0.348793 9.00015 0.564416 9.05796 0.495875C9.16362 0.370403 9.12198 0.222542 9.25543 0.109288C9.27969 0.088843 9.26971 0.314268 9.25885 0.33188C9.25888 0.331659 9.25891 0.33144 9.25895 0.331218ZM0.290379 15.7593C0.287626 15.7601 0.244233 15.8315 0.244929 15.8342C0.263426 15.8971 0.350867 15.7533 0.290379 15.7593ZM8.95929 15.9582C8.9639 15.9624 9.15777 15.9664 9.16409 15.9625C9.26523 15.8849 8.87328 15.8767 8.95929 15.9582ZM3.00867 10.8322C3.01289 10.7294 3.06254 10.6321 3.15081 10.5992C3.10276 10.676 3.05676 10.7548 3.00867 10.8322Z" fill="black"/>
</svg>
