<svg width="19" height="17" viewBox="0 0 19 17" fill="none" xmlns="http://www.w3.org/2000/svg">
<path d="M9.25546 0.102539L18.3487 15.8525H0.162196L9.25546 0.102539Z" fill="#A6C2FA"/>
<path d="M9.83676 0.367005C9.99809 0.626896 10.1894 0.979197 10.3293 1.25014C10.3732 1.33503 10.3318 1.30311 10.3613 1.36216C10.4191 1.47763 10.4875 1.57674 10.5432 1.69164C10.5616 1.72976 10.5081 1.70001 10.528 1.73962C10.6372 1.95661 10.7588 2.15129 10.8759 2.3674C11.4523 3.43191 12.0369 4.46797 12.6369 5.53596C12.8348 5.88809 13.0555 6.32758 13.2749 6.68261C13.3006 6.72405 13.31 6.68508 13.3166 6.69197C13.4194 6.80039 13.347 6.78644 13.388 6.87232C13.5509 7.2131 13.7581 7.57705 13.9486 7.8856C14.0297 8.01682 13.9999 7.85549 14.0509 8.00535C14.0545 8.01573 14.0095 7.99652 14.0279 8.0347C14.0698 8.12127 14.1653 8.27621 14.2004 8.34174C14.268 8.4681 14.2801 8.48847 14.3476 8.60597C14.4396 8.76672 14.5371 8.96478 14.6422 9.13354C14.6647 9.16952 14.6627 9.10585 14.7009 9.16187C14.7392 9.21795 14.8266 9.37434 14.8506 9.43018C14.8747 9.48603 14.8413 9.47559 14.842 9.48755C14.8463 9.58658 15.0048 9.73433 15.0195 9.75662C15.2856 10.1642 15.4628 10.5432 15.691 10.9383C15.8643 11.2381 16.0598 11.5529 16.2231 11.8391C16.4177 12.1802 16.5699 12.4765 16.7631 12.8055C16.7834 12.8402 16.7905 12.7817 16.8154 12.824C17.0801 13.2744 17.3362 13.7255 17.5755 14.1879C17.5995 14.2343 17.539 14.1916 17.5613 14.2388C17.6988 14.5279 17.8981 14.9958 18.1099 15.0923C18.2134 15.2821 18.3399 15.512 18.4129 15.6931C18.4533 15.793 18.3933 15.743 18.431 15.8051L18.5144 15.9455L18.3487 15.9475C18.3365 15.9478 18.3201 15.9489 18.298 15.9509C18.2635 15.9542 18.3084 15.9838 18.2566 15.9864C18.0385 15.9972 17.8003 15.9876 17.5845 16.0029C17.5406 16.0061 17.5526 16.0326 17.5402 16.0374C17.4357 16.0761 17.2618 16.0121 17.2238 16.0075C16.9351 15.9728 16.7242 15.9864 16.4552 15.9856C16.3928 15.9854 16.4666 16.021 16.4065 16.0221C16.095 16.0272 15.7723 16.0242 15.4672 16.0083C15.3994 16.0047 15.4618 15.9744 15.4294 15.9711C15.2864 15.957 15.2547 16.0144 15.1176 16.002C15.0887 15.9994 15.105 15.9734 15.0997 15.9706C15.0172 15.9257 14.9455 15.9893 14.9242 15.9907C14.6557 16.0098 14.4841 15.9435 14.2247 15.9529C14.1937 15.9541 14.2636 15.987 14.1764 15.9883C13.5953 15.9974 12.9807 15.9884 12.4055 15.9621C12.316 15.958 12.3799 15.9333 12.3742 15.9303C12.2825 15.8826 12.2232 15.9464 12.194 15.9488C11.9639 15.9661 11.749 15.9126 11.5927 15.9886C10.6184 15.9622 9.64851 16.0049 8.68223 15.9368C8.66995 15.9361 8.69196 15.9046 8.66746 15.9032C8.37232 15.8856 8.429 15.9344 8.23372 15.9941C8.18452 16.0091 8.03487 15.937 8.02163 15.9317C7.97339 15.9122 8.02343 15.8655 8.00727 15.8617C7.8736 15.8321 7.89538 15.9867 7.71506 15.9867C7.70942 15.9865 7.7331 15.958 7.71797 15.9552C7.67095 15.9463 7.62433 15.9576 7.57832 15.9478C7.47301 15.9252 7.4355 15.8501 7.27466 15.8938C7.2543 15.8994 7.28539 15.9871 7.12439 15.983C7.06021 15.9813 6.7761 15.9828 6.69648 15.9771C6.61695 15.9714 6.67155 15.9432 6.66588 15.9419C6.4516 15.9046 6.53285 15.8891 6.42549 15.8338C6.31815 15.7786 6.34792 15.9101 6.30415 15.9248C6.26032 15.9394 6.10321 15.9086 6.0646 15.8978C6.02601 15.8871 6.07414 15.8692 6.03983 15.8631C5.81231 15.8235 5.93997 15.9283 5.865 15.9492C5.68826 15.9986 5.55061 15.9011 5.3888 15.8916C5.34503 15.889 5.38075 15.9112 5.34177 15.9133C5.18737 15.9212 5.09451 15.8908 4.91885 15.9187C4.89011 15.9232 4.74811 15.9818 4.65619 15.9388C4.64317 15.9326 4.68017 15.9083 4.61436 15.9029C4.51606 15.8947 4.33894 15.8894 4.23327 15.8975C4.15526 15.9035 4.24468 15.9436 4.14648 15.9311C4.10284 15.9256 4.18372 15.9022 4.10174 15.8937C4.02018 15.8852 3.81166 15.8862 3.73231 15.887C3.65311 15.8879 3.69646 15.9182 3.69006 15.9203C3.65132 15.932 3.49932 15.9466 3.48588 15.9466C2.80833 15.9503 2.18353 15.8991 1.52385 15.9161C1.47208 15.9173 1.50657 15.9494 1.49867 15.9499C1.32144 15.9633 1.46117 15.8782 1.33737 15.8497C1.35526 15.9147 1.28218 15.9029 1.15734 15.91C1.09718 15.9135 1.12994 15.9387 1.12445 15.9412C1.03524 15.9795 0.973114 15.9301 0.957119 15.92C0.898037 15.8829 0.833734 15.9267 0.793529 15.9019C0.753343 15.8773 0.845827 15.8408 0.726094 15.8412C0.692522 15.8645 0.781407 15.9253 0.690505 15.9351C0.549368 15.9504 0.357896 15.9514 0.162196 15.9468L7.15256e-06 15.9488L0.0805228 15.8054C0.226078 15.5663 0.385673 15.3253 0.469342 15.1862C0.611238 14.9503 0.651968 14.8712 0.739434 14.7365C0.897437 14.4932 0.805304 14.5626 0.877364 14.3965C0.94969 14.23 1.00193 14.3614 1.03555 14.3509C1.06892 14.3407 1.06157 14.3044 1.08875 14.2835C1.11588 14.2627 1.09576 14.33 1.13714 14.2682C1.17853 14.2063 1.24333 14.0093 1.23489 13.974C1.21696 13.8994 1.12319 13.9509 1.23832 13.7904C1.24498 13.7812 1.2519 13.8276 1.27609 13.7916C1.46742 13.5051 1.64718 13.1966 1.83604 12.9092C1.86205 12.8697 1.86905 12.9224 1.88451 12.8996C2.04557 12.6622 1.94703 12.7234 1.9728 12.5572C2.02525 12.6282 2.11148 12.5778 2.22049 12.3899C2.28604 12.277 2.2442 12.2788 2.26485 12.1933C2.27102 12.1676 2.33822 12.0997 2.3322 12.0769C2.31276 12.0019 2.21659 12.0469 2.34952 11.8651C2.35543 11.8571 2.36554 11.8991 2.38407 11.8706C2.50399 11.6865 2.46791 11.6353 2.58054 11.4265C2.66882 11.2628 2.86415 10.9937 2.97487 10.8132C3.05141 10.8626 3.13335 10.679 3.11959 10.5774C3.19051 10.4597 3.26163 10.3294 3.33553 10.2188C3.36094 10.1807 3.36873 10.2198 3.37408 10.2163C3.45692 10.1621 3.43394 10.0798 3.44669 10.053C3.58725 9.763 3.75822 9.55936 3.87245 9.27113C3.87648 9.26089 3.83058 9.21403 3.91153 9.16609C3.91694 9.16308 3.89118 9.26518 3.96525 9.14134C4.03933 9.01748 4.20468 8.79883 4.2795 8.61069C4.29763 8.56518 4.31453 8.43334 4.39844 8.36814C4.40971 8.3595 4.41823 8.38099 4.43643 8.36964C4.49484 8.33272 4.45624 8.27186 4.53918 8.23671C4.62212 8.20155 4.7321 8.09232 4.8007 7.89863C4.80298 7.89251 4.78306 7.82579 4.81552 7.77116C4.86738 7.68398 4.94851 7.56456 5.00117 7.47268C5.02637 7.42867 4.98293 7.44106 4.98683 7.43316C5.14205 7.12908 5.28765 6.93294 5.48081 6.6227C5.51627 6.56586 5.57536 6.3778 5.66951 6.28248C5.7728 6.17777 5.8333 6.38158 5.96504 6.07988C6.01828 5.95825 5.93228 5.7157 6.13868 5.56105C6.34686 5.1502 6.60447 4.80783 6.80398 4.39049C6.81297 4.37174 6.79845 4.28762 6.82347 4.24577C6.86071 4.18369 6.90269 4.16205 6.92999 4.11813C7.04494 3.93443 7.12511 3.75187 7.23245 3.57274C7.27316 3.5047 7.28216 3.54191 7.33072 3.46077C7.37922 3.37965 7.38061 3.30771 7.45918 3.20521C7.51862 3.12785 7.62851 3.07965 7.69987 2.97262C7.64161 2.93333 7.68694 2.85771 7.74926 2.71275C7.76122 2.68487 7.72394 2.70064 7.7285 2.68682C7.7466 2.63032 7.79095 2.59395 7.80662 2.53943C7.81047 2.52618 7.79006 2.51367 7.79204 2.50216C7.80806 2.4039 7.93139 2.29798 7.95269 2.27985C8.03401 2.2102 8.03064 2.15377 8.08151 2.09371C8.13231 2.03375 8.08968 2.14264 8.14221 2.06867C8.25107 1.91533 8.368 1.70507 8.46402 1.54094C8.50221 1.47538 8.44866 1.50423 8.45348 1.49448C8.5249 1.35456 8.63366 1.23417 8.62203 1.127C8.81895 1.11509 8.65551 1.03709 8.79617 0.859361C8.80731 0.845395 8.88595 0.864846 8.86193 0.929293C8.83791 0.993726 8.76542 1.07062 8.7338 1.16101C8.72628 1.1824 8.72562 1.3294 8.72074 1.34669C8.68243 1.48209 8.57205 1.44068 8.5629 1.44374C8.46228 1.48015 8.45233 1.65452 8.4365 1.6928C8.36409 1.86797 8.27011 1.99804 8.2069 2.14303C8.16544 2.23779 8.22639 2.28459 8.18402 2.35332C8.04318 2.58184 7.90432 2.60981 7.8577 2.87485C7.84761 2.93163 7.94666 2.9266 7.79283 3.0621C7.78315 3.07061 7.65916 3.16557 7.65031 3.25667C7.64921 3.26813 7.67039 3.27997 7.66526 3.29294C7.63043 3.37964 7.58284 3.4234 7.54048 3.5153C7.49812 3.60719 7.44949 3.71902 7.38484 3.81453C7.34591 3.87211 7.26228 3.92655 7.2361 3.94975C7.16163 4.01497 7.15666 4.12813 7.09419 4.1591C7.03131 4.1904 7.0375 4.06181 6.93902 4.18223C6.99078 4.21868 7.04029 4.26234 7.09063 4.30196C6.92049 4.59222 6.73731 4.86872 6.57094 5.16245C6.55037 5.1989 6.60112 5.17878 6.57982 5.21829C6.48984 5.38491 6.38625 5.51601 6.29644 5.69082C6.22703 5.8262 6.17479 5.98844 6.10318 6.13056C5.99218 6.17853 5.89551 6.39496 5.80416 6.53999C5.77219 6.59081 5.75751 6.5777 5.73073 6.61151C5.63012 6.73928 5.72304 6.70584 5.70967 6.74907C5.65208 6.93444 5.51901 6.87632 5.4105 7.07141C5.40471 7.08173 5.39904 7.24537 5.39324 7.26501C5.35703 7.39018 5.35958 7.26975 5.31507 7.33548C5.23381 7.45547 5.16767 7.53327 5.10239 7.69141C5.08344 7.73757 5.06564 7.86428 4.98551 7.92891C4.97499 7.93742 4.95646 7.91866 4.95009 7.92672C4.83657 8.07371 4.90333 8.11785 4.87417 8.22247C4.84499 8.3271 4.716 8.44024 4.6857 8.46093C4.60684 8.51529 4.70362 8.39474 4.70247 8.38866C4.6884 8.31699 4.63631 8.42375 4.58753 8.50014C4.51314 8.47233 4.4539 8.58434 4.53722 8.57948C4.54643 8.57877 4.57534 8.5141 4.58753 8.50014C4.61434 8.6074 4.55329 8.73283 4.41424 8.83003C4.34912 8.87551 4.34914 8.79699 4.25229 8.99344C4.20831 9.08258 4.27418 9.07636 4.24315 9.15952C4.17221 9.34948 3.99871 9.54937 3.90249 9.73188C3.86757 9.79812 3.92958 9.74976 3.9066 9.79554C3.84568 9.91707 3.76665 10.0097 3.70833 10.1334C3.70308 10.1446 3.74493 10.1339 3.72408 10.1708C3.56653 10.4509 3.40949 10.6833 3.24128 10.9735C3.16002 11.1138 3.02988 11.3733 2.94295 11.517C2.79245 11.7661 2.57453 12.0537 2.45967 12.2745C2.38465 12.4184 2.4292 12.4031 2.4127 12.4738C2.38102 12.6103 2.19903 12.7793 2.17325 12.8013C2.17243 12.8019 2.23589 12.6774 2.18492 12.734C2.13465 12.7549 2.17391 12.7998 2.17325 12.8013C2.15642 12.8158 2.01097 13.0537 1.98842 13.1046C1.97618 13.1322 2.00995 13.1323 2.00309 13.1464C1.83943 13.4823 1.65919 13.8094 1.45832 14.1299C1.45449 14.1354 1.43113 14.1103 1.42245 14.1234C1.30041 14.3056 1.26505 14.447 1.19541 14.6152C1.12578 14.7834 1.04732 14.9034 0.945203 14.9678C0.883252 15.0892 0.764043 15.246 0.694769 15.3358C0.625499 15.4256 0.672879 15.4711 0.669026 15.4803C0.58155 15.6909 0.493284 15.8204 0.3874 15.9826L0.162196 15.5925C0.232585 15.5964 0.307892 15.6001 0.393297 15.6016C0.545469 15.6044 0.847303 15.5951 1.01206 15.5882C1.14228 15.5826 1.22072 15.5975 1.3407 15.5879C1.35693 15.5867 1.34054 15.5583 1.34548 15.5572C1.47939 15.5232 1.41504 15.5926 1.44268 15.605C1.54291 15.6501 1.60484 15.6741 1.77631 15.6529C1.81586 15.648 1.93108 15.5481 2.00317 15.5423C2.09691 15.5348 2.06153 15.5707 2.15969 15.562C2.16808 15.5613 2.16634 15.5392 2.22691 15.5401C2.5081 15.5444 2.81467 15.5572 3.10688 15.555C3.14679 15.5548 3.09562 15.5198 3.15329 15.5189C3.4239 15.5147 3.72051 15.516 3.98414 15.5324C4.04903 15.5366 4.00835 15.5611 4.02244 15.5684C4.10892 15.6125 4.23156 15.5484 4.2518 15.5472C4.73449 15.5164 5.10391 15.5744 5.59589 15.5468C5.62267 15.5452 5.82882 15.4765 5.92078 15.5354C5.92708 15.5393 6.01807 15.5996 6.09852 15.5584C6.10352 15.5558 6.04682 15.5248 6.14577 15.5279C6.24471 15.5311 6.40395 15.5104 6.53996 15.5445C6.58302 15.5552 6.6848 15.6153 6.81324 15.5674C6.82161 15.564 7.01989 15.4557 7.09067 15.5304C7.10215 15.5428 7.09013 15.6219 7.24344 15.5813C7.27273 15.5734 7.21955 15.5558 7.29672 15.5448C7.41495 15.5278 7.5716 15.549 7.71693 15.5137C7.74228 15.5075 7.85017 15.4538 7.93672 15.4946C7.95027 15.5009 7.92452 15.5274 7.97023 15.5303C8.18757 15.5445 8.41515 15.5268 8.63582 15.5451C8.71398 15.5515 8.67402 15.5942 8.75549 15.6057C8.83699 15.6171 9.00116 15.6281 9.08642 15.6086C9.1717 15.5891 9.07854 15.521 9.2063 15.5156C9.76173 15.4919 10.3119 15.5318 10.8665 15.5377C10.9488 15.5385 10.8806 15.5142 11.0018 15.5137C11.4488 15.5119 12.2204 15.4891 12.6082 15.5408C12.9189 15.5823 12.5279 15.6138 12.7653 15.6307C12.8799 15.6387 13.0038 15.5596 13.0315 15.5571C13.3017 15.5318 13.4895 15.5669 13.7327 15.5561C13.7829 15.5539 13.7337 15.5218 13.7764 15.5203C13.9224 15.5147 14.0758 15.529 14.2153 15.5264C14.2779 15.5252 14.2664 15.5007 14.324 15.5026C14.4618 15.5068 14.5836 15.5171 14.718 15.5401C14.7302 15.5421 14.6477 15.5726 14.7496 15.5737C14.9146 15.5755 15.1194 15.5981 15.3093 15.5748C15.3656 15.5677 15.3678 15.5117 15.4889 15.5504C15.5143 15.5585 15.4819 15.6257 15.6229 15.5676C15.6466 15.558 15.8836 15.4796 15.9998 15.5301C16.0305 15.5434 16.1088 15.5984 16.1765 15.5898C16.1857 15.5884 16.1489 15.5583 16.205 15.5554C16.4029 15.5456 16.6102 15.5488 16.8134 15.5394C16.8677 15.5368 16.7868 15.5057 16.8677 15.5028C17.0902 15.495 17.3679 15.5029 17.5854 15.5126C17.6655 15.5163 17.6101 15.5421 17.616 15.5449C17.7098 15.5905 17.7653 15.5289 17.7964 15.5253C17.9901 15.5038 18.1376 15.5327 18.3161 15.5251C18.3654 15.5231 18.3304 15.4937 18.3402 15.4911C18.3432 15.4903 18.346 15.4896 18.3487 15.489L18.0339 16.0343C17.9717 15.9675 18.0497 16.0029 18.0233 15.9459C17.9474 15.7815 17.8448 15.6085 17.7504 15.4525C17.7156 15.3951 17.7238 15.4774 17.693 15.4257C17.51 15.1205 17.3278 14.7985 17.1704 14.4883C17.1408 14.4299 17.1841 14.4524 17.1825 14.4376C17.1718 14.3353 17.0535 14.2447 17.0329 14.22C16.9394 14.1076 16.9315 14.0476 16.8641 13.9396C16.5348 13.4123 16.1645 12.7401 15.8794 12.2274C15.5078 11.5594 15.2329 11.0333 14.8628 10.4053C14.8393 10.3654 14.8325 10.4233 14.8119 10.3891C14.5468 9.94681 14.3048 9.50043 14.0378 9.05807C14.0159 9.02175 14.0179 9.09119 13.9818 9.03344C13.9077 8.91509 13.8208 8.76108 13.7594 8.6336C13.7294 8.57145 13.8001 8.63722 13.7694 8.57495C13.698 8.42993 13.6136 8.279 13.5261 8.13815C13.4889 8.07825 13.5128 8.18729 13.4666 8.10811C13.1515 7.56911 12.8399 7.04102 12.5624 6.47275C12.5434 6.43379 12.5839 6.36657 12.5265 6.29352C12.5065 6.29705 12.4873 6.30859 12.4681 6.31617C12.0042 5.53457 11.575 4.74361 11.1225 3.95247C11.1034 3.91911 11.1051 3.99483 11.068 3.93035C10.8532 3.55719 10.6354 3.20012 10.4465 2.8006C10.4277 2.76098 10.4944 2.74837 10.4216 2.64169C10.4087 2.6229 10.3043 2.4592 10.2672 2.42272C10.262 2.41787 10.2538 2.46347 10.2218 2.40977C10.0363 2.0975 9.85187 1.76445 9.6864 1.44132C9.65975 1.38914 9.71848 1.42718 9.69973 1.38988C9.56654 1.12539 9.38479 0.858992 9.26857 0.599879C9.19088 0.426381 9.27355 0.459493 9.27022 0.345383C9.26973 0.329252 9.21224 0.227238 9.2365 0.206234C9.29737 0.15314 9.40089 0.158865 9.46242 0.0964682C9.47572 0.0831115 9.38034 -0.0429015 9.46485 0.0155212C9.47064 0.0196672 9.54013 0.110835 9.56705 0.127628C9.58573 0.139356 9.59592 0.0929006 9.62724 0.12075C9.65856 0.148603 9.65714 0.199892 9.70355 0.24925C9.75011 0.298487 9.7672 0.255151 9.83676 0.367005ZM0.38329 15.7404C0.304724 15.8153 0.394179 15.8846 0.42723 15.7737C0.428716 15.7683 0.387276 15.7365 0.38329 15.7404ZM6.66499 4.82478C6.5541 4.91789 6.57054 5.03491 6.65163 4.97088C6.73267 4.90683 6.6987 4.79637 6.66499 4.82478ZM7.33927 3.58466C7.22597 3.70289 7.35119 3.8041 7.40851 3.6405C7.41189 3.63102 7.34588 3.57774 7.33927 3.58466ZM9.51658 0.741237C9.51715 0.739248 9.47632 0.665626 9.47404 0.664622C9.42078 0.643617 9.50244 0.790819 9.51658 0.741237ZM8.00536 2.35231C7.9619 2.38455 7.91193 2.52077 7.96595 2.48073C8.00942 2.44848 8.05945 2.31215 8.00536 2.35231ZM5.38443 15.8368C5.38607 15.8385 5.44642 15.84 5.44521 15.8306C5.44111 15.8001 5.35713 15.8087 5.38443 15.8368ZM9.19375 0.2903C9.01275 0.591823 8.79237 0.710767 8.99667 0.386561C9.03366 0.327851 8.95823 0.536939 9.01262 0.466423C9.11205 0.337355 9.09423 0.203242 9.21491 0.0826209C9.23684 0.0608276 9.20433 0.273244 9.19359 0.290931C9.19365 0.29072 9.1937 0.290511 9.19375 0.2903ZM0.236649 15.725C0.234324 15.726 0.191337 15.7977 0.191609 15.8002C0.199827 15.8571 0.286444 15.7128 0.236649 15.725ZM8.90576 15.9062C8.91037 15.9093 9.10424 15.9123 9.11056 15.9094C9.2117 15.8512 8.81975 15.845 8.90576 15.9062ZM2.97864 10.8116C2.99319 10.7147 3.04406 10.6182 3.11935 10.5777C3.07199 10.655 3.02609 10.7338 2.97864 10.8116Z" fill="#404040"/>
</svg>
